<svg width="41" height="40" viewBox="0 0 41 40" fill="none" xmlns="http://www.w3.org/2000/svg">
    <ellipse cx="20.0872" cy="20" rx="20.0581" ry="20" fill="#F45A0E"/>
    <mask id="mask0_2_222" style="mask-type:alpha" maskUnits="userSpaceOnUse" x="0" y="0" width="41" height="40">
        <ellipse cx="20.0872" cy="20" rx="20.0581" ry="20" fill="#F45A0E"/>
    </mask>
    <g mask="url(#mask0_2_222)">
        <mask id="mask1_2_222" style="mask-type:luminance" maskUnits="userSpaceOnUse" x="0" y="3" width="39" height="39">
            <path d="M38.1395 3H0.0290527V42H38.1395V3Z" fill="white"/>
        </mask>
        <g mask="url(#mask1_2_222)">
            <path d="M31.1191 29.6L8.45339 43.3C7.65107 43.8 6.74845 43.9 5.84584 43.7C4.94322 43.5 4.14089 42.9 3.73973 42.1L2.33566 39.7C2.23537 39.5 2.23537 39.4 2.23537 39.2C2.23537 39 2.43595 38.9 2.53624 38.8L3.13799 38.4C4.44177 37.6 4.84293 35.9 4.0406 34.6C3.23828 33.3 1.53334 32.9 0.229557 33.7L-0.472478 34C-0.673059 34.1 -0.77335 34.1 -0.973931 34.1C-1.17451 34.1 -1.2748 33.9 -1.37509 33.8L-2.77916 31.4C-3.78207 29.8 -3.28062 27.6 -1.57568 26.6L20.9897 12.9C22.5944 11.9 24.8008 12.4 25.8037 14.1L27.2078 16.5C27.308 16.7 27.308 16.8 27.308 17C27.308 17.2 27.1075 17.3 27.0072 17.4L26.4054 17.8C25.904 18.1 25.6031 18.5 25.3022 19C25.1017 19.5 25.0014 20.1 25.1017 20.6C25.2019 21.1 25.4025 21.6 25.8037 22.1C26.2048 22.5 26.7063 22.8 27.2078 22.9C27.9098 23.1 28.7121 23 29.3139 22.6L29.9156 22.2C30.1162 22.1 30.2165 22.1 30.4171 22.1C30.6176 22.1 30.7179 22.3 30.8182 22.4L32.2223 24.8C32.7237 25.6 32.824 26.5 32.6235 27.4C32.4229 28.3 31.9214 29.1 31.1191 29.6ZM3.73973 39.6L4.84293 41.4C5.44467 42.4 6.74845 42.7 7.75136 42.1L30.4171 28.4C31.42 27.8 31.7208 26.5 31.1191 25.5L30.0159 23.7C29.5144 24 29.013 24.2 28.5115 24.3C28.0101 24.4 27.4083 24.4 26.9069 24.2C26.4054 24.1 25.904 23.8 25.4025 23.5C25.0014 23.2 24.6002 22.8 24.2993 22.3C23.0958 20.3 23.6976 17.8 25.7034 16.6L24.6002 14.8C23.9985 13.8 22.6947 13.5 21.6918 14.1L-0.973931 27.8C-1.97684 28.4 -2.27771 29.7 -1.67597 30.7L-0.572768 32.5C1.43305 31.3 3.94031 31.9 5.1438 33.9C6.34729 35.9 5.74555 38.4 3.73973 39.6Z" fill="white" stroke="white" stroke-width="0.4" stroke-miterlimit="10"/>
            <path d="M6.94908 24.7001C6.7485 24.8001 6.64821 24.8 6.44763 24.8C6.24705 24.8 6.14676 24.6 6.04647 24.5L5.34443 23.3C5.24414 23.1 5.24414 23 5.24414 22.8C5.24414 22.6 5.44472 22.5 5.54501 22.4C5.74559 22.3 5.84589 22.3 6.04647 22.3C6.24705 22.3 6.34734 22.5 6.44763 22.6L7.14966 23.8C7.24995 24 7.24995 24.1 7.24995 24.3C7.14966 24.4 7.04937 24.6001 6.94908 24.7001ZM13.0668 34.8C12.8662 34.9 12.7659 34.9 12.5654 34.9C12.3648 34.9 12.2645 34.7001 12.1642 34.6L10.9607 32.6C10.8604 32.4001 10.8604 32.3 10.8604 32.1C10.8604 31.9001 11.061 31.8001 11.1613 31.7001C11.3619 31.6 11.4622 31.6 11.6627 31.6C11.8633 31.6 11.9636 31.8 12.0639 31.9L13.2674 33.9C13.3677 34.1 13.3677 34.2 13.3677 34.4C13.3677 34.5 13.1671 34.7 13.0668 34.8ZM9.9578 29.7001C9.75722 29.8001 9.65693 29.8 9.45635 29.8C9.25577 29.8 9.15548 29.6 9.05519 29.5L7.8517 27.5C7.75141 27.3 7.75141 27.2 7.75141 27C7.75141 26.8 7.95199 26.7 8.05228 26.6C8.25286 26.5001 8.35315 26.5 8.55373 26.5C8.75432 26.5 8.85461 26.7 8.9549 26.8L10.1584 28.8C10.2587 29 10.2587 29.1 10.2587 29.3C10.2587 29.5 10.1584 29.6001 9.9578 29.7001ZM15.5741 39C15.3735 39.1 15.2732 39.1 15.0726 39.1C14.872 39.1 14.7718 38.9 14.6715 38.8L13.9694 37.6C13.8691 37.4 13.8691 37.3 13.8691 37.1C13.8691 36.9 14.0697 36.8001 14.17 36.7001C14.3706 36.6 14.4709 36.6 14.6715 36.6C14.872 36.6 14.9723 36.8001 15.0726 36.9001L15.7747 38.1C15.875 38.3 15.875 38.4 15.875 38.6C15.875 38.7 15.7747 38.9 15.5741 39Z" fill="white" stroke="white" stroke-width="0.4" stroke-miterlimit="10"/>
            <path d="M-0.973778 27.8C-1.07407 27.9 -1.27465 27.9 -1.47523 27.9C-1.67581 27.9 -1.7761 27.8 -1.87639 27.7C-1.97668 27.6 -1.97668 27.4 -1.97668 27.3C-1.97668 27.1 -1.87639 27 -1.7761 26.8L12.766 8.30002C13.4681 7.40002 14.8722 7.30002 15.7748 8.00002L21.7922 13C21.8925 13.1 21.9928 13.3 21.9928 13.5C21.9928 13.7 21.9928 13.9 21.7922 14C21.6919 14.1 21.4913 14.2 21.2908 14.2C21.0902 14.2 20.8896 14.2 20.7893 14L14.7719 9.00002C14.6716 8.90002 14.471 8.80002 14.2704 8.80002C14.0698 8.80002 13.8692 8.90002 13.769 9.10002L-0.773196 27.7C-0.773196 27.7 -0.873487 27.8 -0.973778 27.8Z" fill="white" stroke="white" stroke-width="0.4" stroke-miterlimit="10"/>
        </g>
    </g>
</svg>
