<svg width="41" height="40" viewBox="0 0 41 40" fill="none" xmlns="http://www.w3.org/2000/svg">
    <ellipse cx="20.0872" cy="20" rx="20.0581" ry="20" fill="#F45A0E"/>
    <path d="M26.7166 23.2203V30" stroke="white" stroke-width="1.6" stroke-miterlimit="10" stroke-linecap="round" stroke-linejoin="round"/>
    <path d="M23.3169 26.6102H30.1163" stroke="white" stroke-width="1.6" stroke-miterlimit="10" stroke-linecap="round" stroke-linejoin="round"/>
    <path d="M14.6477 15.4237C14.6477 12.4283 17.0831 9.99995 20.0872 9.99995C23.0913 9.99995 25.5267 12.4283 25.5267 15.4237C25.5267 18.4191 23.0913 20.8474 20.0872 20.8474C17.0831 20.8474 14.6477 18.4191 14.6477 15.4237Z" stroke="white" stroke-width="1.6" stroke-miterlimit="10" stroke-linecap="round" stroke-linejoin="round"/>
    <path d="M22.3279 30H11.7579C10.8192 30 10.0581 29.2411 10.0581 28.3051V26.7373C10.0581 25.5219 10.5793 24.363 11.495 23.5608C13.0454 22.2025 15.8731 20.8475 20.0872 20.8475" stroke="white" stroke-width="1.6" stroke-miterlimit="10" stroke-linecap="round"/>
</svg>
