<svg width="128" height="119" viewBox="0 0 128 119" fill="none" xmlns="http://www.w3.org/2000/svg">
<path d="M120.523 45.227C118.83 33.6044 110.066 24.2705 98.5718 21.8506C94.5894 21.0042 91.0004 18.8466 88.3653 15.7353C76.0364 1.18015 54.2402 -0.631794 39.6696 11.7061C34.0417 16.4744 30.0831 22.9115 28.378 30.0878C27.0068 35.6189 23.2986 40.268 18.2192 42.8548C4.99598 49.7211 -1.62158 67.5544 10.4212 84.2791C11.9951 86.2699 14.034 87.8434 16.3472 88.8567C20.6158 90.9666 23.9544 94.5786 25.6952 99.0131C31.2397 112.615 46.7641 119.135 60.3689 113.58C62.1693 112.841 63.8863 111.911 65.4841 110.803C70.0031 107.644 75.6787 106.642 81.0085 108.061C95.436 111.995 110.317 103.483 114.251 89.0593C115.372 84.9705 115.503 80.6671 114.657 76.5188C113.786 71.9889 114.621 67.2922 116.994 63.3345C120.189 57.8748 121.429 51.4973 120.511 45.2389L120.523 45.227Z" fill="#D0D9FA"/>
<path d="M10.6358 8.71399C10.9935 9.90606 11.9235 10.824 13.1159 11.1935C14.3559 11.6107 14.3559 12.016 13.1159 12.4332C11.9235 12.7909 11.0054 13.7207 10.6358 14.9127C10.2184 16.1525 9.81305 16.1525 9.39573 14.9127C9.03802 13.7207 8.10798 12.8028 6.91563 12.4332C5.67558 12.016 5.67558 11.6107 6.91563 11.1935C8.10798 10.8359 9.0261 9.90606 9.39573 8.71399C9.81305 7.47424 10.2184 7.47424 10.6358 8.71399Z" fill="#EB5B19"/>
<path d="M3.38628 83.9215C3.6486 84.7917 4.32824 85.4593 5.18674 85.7215C6.09292 86.0195 6.09292 86.3175 5.18674 86.6275C4.31632 86.8897 3.6486 87.5692 3.38628 88.4275C3.08819 89.3335 2.79011 89.3335 2.48009 88.4275C2.21778 87.5573 1.53814 86.8897 0.679641 86.6275C-0.226547 86.3295 -0.226547 86.0314 0.679641 85.7215C1.55006 85.4593 2.21778 84.7798 2.48009 83.9215C2.77818 83.0155 3.07627 83.0155 3.38628 83.9215Z" fill="#EB5B19"/>
<path d="M85.9567 0.548361C86.1714 1.23976 86.7079 1.78811 87.4114 2.00268C88.1388 2.2411 88.1388 2.49143 87.4114 2.72984C86.7199 2.94441 86.1714 3.48084 85.9567 4.18416C85.7183 4.91132 85.4679 4.91132 85.2294 4.18416C85.0148 3.49277 84.4782 2.94441 83.7747 2.72984C83.0474 2.49143 83.0474 2.2411 83.7747 2.00268C84.4663 1.78811 85.0148 1.25168 85.2294 0.548361C85.4679 -0.178799 85.7183 -0.178799 85.9567 0.548361Z" fill="#EB5B19"/>
<path d="M118.007 22.5301C118.258 23.3526 118.901 24.0082 119.736 24.2586C120.595 24.5447 120.595 24.8308 119.736 25.1169C118.913 25.3672 118.258 26.0109 118.007 26.8454C117.721 27.7036 117.435 27.7036 117.149 26.8454C116.898 26.0228 116.254 25.3672 115.42 25.1169C114.561 24.8308 114.561 24.5447 115.42 24.2586C116.242 24.0082 116.898 23.3645 117.149 22.5301C117.435 21.6718 117.721 21.6718 118.007 22.5301Z" fill="#EB5B19"/>
<path d="M121.15 59.6272C121.782 61.7133 123.415 63.3464 125.502 63.9782C127.672 64.7054 127.672 65.4325 125.502 66.1478C123.415 66.7796 121.782 68.4127 121.15 70.4988C120.422 72.6684 119.695 72.6684 118.98 70.4988C118.348 68.4127 116.714 66.7796 114.628 66.1478C112.457 65.4206 112.457 64.6935 114.628 63.9782C116.714 63.3464 118.348 61.7133 118.98 59.6272C119.707 57.4576 120.434 57.4576 121.15 59.6272Z" fill="#EB5B19"/>
<path d="M108.847 28.0517C101.979 22.6682 96.1224 25.6501 92.3915 28.4317V41.4628C93.2089 41.5603 94.0891 41.4352 94.867 41.0138C94.867 41.0138 94.867 41.0144 94.867 41.0151C94.8898 41.0027 94.9119 40.9896 94.9347 40.9764C94.9451 40.9702 94.9555 40.9647 94.9658 40.9592C95.0156 40.9302 95.0646 40.9004 95.113 40.8693C95.1171 40.8666 95.1213 40.8638 95.1254 40.8617C95.2021 40.812 95.2774 40.7588 95.3514 40.7022C95.3597 40.6959 95.3679 40.6897 95.3762 40.6835C95.446 40.6296 95.5144 40.5723 95.5814 40.5122C95.5939 40.5011 95.6056 40.49 95.6181 40.479C95.6809 40.4216 95.7417 40.3608 95.8018 40.298C95.817 40.2821 95.8322 40.2655 95.8474 40.2489C95.9034 40.1881 95.958 40.1246 96.0112 40.0589C96.0291 40.0368 96.0457 40.0147 96.063 39.9926C96.112 39.929 96.1604 39.8627 96.2074 39.7943C96.2267 39.766 96.2454 39.737 96.264 39.7079C96.3069 39.6416 96.349 39.5739 96.3891 39.5034C96.4091 39.4682 96.4285 39.4309 96.4478 39.395C96.4844 39.3266 96.5204 39.2568 96.5549 39.1849C96.575 39.1421 96.5936 39.0972 96.613 39.053C96.644 38.9825 96.6744 38.9113 96.7028 38.8374C96.7221 38.7863 96.7401 38.7331 96.758 38.6806C96.7829 38.6087 96.8085 38.5362 96.8313 38.4609C96.8492 38.4014 96.8651 38.3386 96.8817 38.2764C96.9011 38.2032 96.9218 38.1299 96.9391 38.0539C96.955 37.9848 96.9681 37.9116 96.9819 37.8404C96.9964 37.7665 97.0116 37.6933 97.024 37.6166C97.0372 37.5364 97.0468 37.4521 97.0572 37.3692C97.0662 37.296 97.0772 37.2241 97.0848 37.1481C97.0938 37.0549 97.0994 36.9568 97.1056 36.8593C97.1104 36.7882 97.1166 36.7198 97.1194 36.6472C97.1242 36.5325 97.1242 36.4116 97.1249 36.2921C97.1249 36.232 97.1277 36.1747 97.127 36.1139C97.1249 35.9301 97.118 35.7408 97.1056 35.5459C96.9936 33.7593 97.8027 32.9813 98.9682 32.9702C99.2273 32.9682 99.5037 33.0034 99.7911 33.0739C100.007 33.1271 100.229 33.1996 100.455 33.2915C100.606 33.3523 100.758 33.4221 100.912 33.4995C100.988 33.5382 101.065 33.5789 101.143 33.6218C101.297 33.7067 101.451 33.8 101.605 33.9009C101.683 33.9513 101.759 34.0031 101.837 34.057C102.068 34.2187 102.297 34.3977 102.522 34.5911C102.747 34.7846 102.969 34.9939 103.183 35.2171C103.326 35.3656 103.467 35.5211 103.603 35.682C104.012 36.1657 104.387 36.7032 104.708 37.2856C104.815 37.4798 104.916 37.6788 105.01 37.8826C105.15 38.188 105.276 38.5044 105.383 38.8298C105.885 40.3491 105.995 42.0722 105.446 43.8851C105.127 44.9408 104.357 46.1078 103.283 47.3404C101.554 49.3239 99.4595 50.9565 97.1325 52.1857L87.4785 57.2852C85.4604 61.3816 84.3384 64.5591 80.6855 67.2384L102.57 57.0918C115.254 51.2011 120.585 37.2525 108.847 28.0517H108.847Z" fill="#FCA600"/>
<path d="M18.5214 28.0517C25.389 22.6682 31.2458 25.6501 34.9767 28.4317V41.4628C34.1593 41.5603 33.2791 41.4352 32.5012 41.0138C32.5012 41.0138 32.5012 41.0144 32.5012 41.0151C32.4784 41.0027 32.4562 40.9896 32.4334 40.9764C32.4231 40.9702 32.4127 40.9647 32.4024 40.9592C32.3526 40.9302 32.3036 40.9004 32.2552 40.8693C32.251 40.8666 32.2469 40.8638 32.2428 40.8617C32.1661 40.812 32.0908 40.7588 32.0168 40.7022C32.0085 40.6959 32.0002 40.6897 31.992 40.6835C31.9222 40.6296 31.8538 40.5723 31.7868 40.5122C31.7743 40.5011 31.7626 40.49 31.7501 40.479C31.6873 40.4216 31.6265 40.3608 31.5664 40.298C31.5512 40.2821 31.536 40.2655 31.5208 40.2489C31.4648 40.1881 31.4102 40.1246 31.357 40.0589C31.3391 40.0368 31.3225 40.0147 31.3052 39.9926C31.2561 39.929 31.2078 39.8627 31.1608 39.7943C31.1415 39.766 31.1228 39.737 31.1041 39.7079C31.0613 39.6416 31.0192 39.5739 30.9791 39.5034C30.9591 39.4682 30.9397 39.4309 30.9204 39.395C30.8837 39.3266 30.8478 39.2568 30.8133 39.1849C30.7932 39.1421 30.7746 39.0972 30.7552 39.053C30.7241 38.9825 30.6938 38.9113 30.6654 38.8374C30.6461 38.7863 30.6281 38.7331 30.6102 38.6806C30.5853 38.6087 30.5597 38.5362 30.5369 38.4609C30.519 38.4014 30.5031 38.3386 30.4865 38.2764C30.4671 38.2032 30.4464 38.1299 30.4291 38.0539C30.4132 37.9848 30.4001 37.9116 30.3863 37.8404C30.3718 37.7665 30.3566 37.6933 30.3442 37.6166C30.331 37.5364 30.3214 37.4521 30.311 37.3692C30.302 37.296 30.291 37.2241 30.2834 37.1481C30.2744 37.0549 30.2688 36.9568 30.2626 36.8593C30.2578 36.7882 30.2516 36.7198 30.2488 36.6472C30.244 36.5325 30.244 36.4116 30.2433 36.2921C30.2433 36.232 30.2405 36.1747 30.2412 36.1139C30.2433 35.9301 30.2502 35.7408 30.2626 35.5459C30.3746 33.7593 29.5655 32.9813 28.4 32.9702C28.1409 32.9682 27.8645 33.0034 27.5771 33.0739C27.3615 33.1271 27.1391 33.1996 26.9131 33.2915C26.7625 33.3523 26.6098 33.4221 26.4564 33.4995C26.3797 33.5382 26.3031 33.5789 26.2257 33.6218C26.0716 33.7067 25.9168 33.8 25.7628 33.9009C25.6854 33.9513 25.6087 34.0031 25.5313 34.057C25.3006 34.2187 25.0712 34.3977 24.8459 34.5911C24.6207 34.7846 24.3996 34.9939 24.1847 35.2171C24.0417 35.3656 23.9015 35.5211 23.7654 35.682C23.3564 36.1657 22.9812 36.7032 22.6606 37.2856C22.5535 37.4798 22.4527 37.6788 22.3587 37.8826C22.2177 38.188 22.092 38.5044 21.9849 38.8298C21.4833 40.3491 21.3735 42.0722 21.922 43.8851C22.2412 44.9408 23.0109 46.1078 24.0853 47.3404C25.8146 49.3239 27.9087 50.9565 30.2357 52.1857L39.8897 57.2852C41.9078 61.3816 43.0298 64.5591 46.6826 67.2384L24.7983 57.0918C12.1153 51.2018 6.78364 37.2532 18.5214 28.0517Z" fill="#FFCA3A"/>
<path d="M61.9139 76.5918C61.65 76.5918 61.3868 76.5884 61.1242 76.5815C61.0406 76.5794 60.957 76.5746 60.8734 76.5718C60.6945 76.5656 60.5155 76.5594 60.338 76.5497C60.2406 76.5448 60.1431 76.5372 60.0457 76.531C59.882 76.5207 59.7189 76.511 59.5559 76.4979C59.455 76.4896 59.3548 76.4799 59.254 76.4709C59.0951 76.4564 58.9355 76.4426 58.7772 76.4253C58.6771 76.415 58.5776 76.4025 58.4781 76.3908C58.3199 76.3721 58.1616 76.3535 58.0041 76.3327C57.906 76.3196 57.8086 76.3051 57.7112 76.2913C57.5516 76.2685 57.392 76.245 57.2338 76.2201C57.1405 76.2049 57.0479 76.189 56.9546 76.1731C56.7923 76.1455 56.6306 76.1172 56.4689 76.0875C56.3798 76.0709 56.2907 76.0529 56.2015 76.0356C56.0371 76.0032 55.8727 75.97 55.7089 75.9348C55.624 75.9168 55.5397 75.8975 55.4554 75.8788C55.2882 75.8415 55.121 75.8028 54.9545 75.7621C54.8743 75.7427 54.7949 75.7227 54.7154 75.7026C54.5441 75.6598 54.3734 75.6149 54.2034 75.5693C54.1302 75.5493 54.057 75.5292 53.9837 75.5092C53.8076 75.4601 53.6321 75.409 53.4566 75.3572C53.3903 75.3371 53.3239 75.3178 53.2576 75.2971C53.0759 75.2411 52.8942 75.1838 52.7139 75.1243C52.6551 75.105 52.5971 75.0863 52.5391 75.067C52.403 75.0214 52.2682 74.9751 52.1328 74.9274V78.1429C52.1328 80.5804 53.9983 82.6027 56.3722 82.8535C56.5359 82.8708 56.7024 82.8804 56.871 82.8804H69.9574C70.1233 82.8804 70.2863 82.8714 70.448 82.8549C72.8254 82.6075 74.6957 80.5832 74.6957 78.1429V74.6462C71.4111 75.9016 67.8564 76.5918 64.1483 76.5918H61.9139Z" fill="#FCA600"/>
<path d="M59.2658 70.8083C64.4303 67.3524 68.5274 62.5658 70.9704 56.8507C75.14 47.0972 76.5585 36.0095 76.1329 25.3544C72.1519 25.7572 67.7128 25.9825 63.0306 25.9825C59.0137 25.9825 55.1757 25.8166 51.6528 25.5154C51.4179 25.4954 51.1843 25.4746 50.9522 25.4532C49.7922 25.3468 48.6681 25.2252 47.5847 25.0905C47.3685 25.0635 47.1529 25.0359 46.9401 25.0076C46.5138 24.9516 46.0938 24.8929 45.6813 24.8328C44.4432 24.6511 43.2686 24.4514 42.1666 24.2338C41.7991 24.1612 41.4398 24.0873 41.0888 24.0106C40.5624 23.8966 40.0546 23.7785 39.5668 23.6562C39.2414 23.5747 38.9256 23.4917 38.6182 23.4068C38.1573 23.2796 37.7172 23.1491 37.2992 23.0143C36.8812 22.8803 36.4847 22.7421 36.1109 22.6012C35.4884 22.3663 34.9287 22.1224 34.4382 21.8709C32.8678 21.066 32 20.1802 32 19.251V46.5818C32 50.9952 32.9693 55.1994 34.7049 58.9904C36.9869 63.9766 40.5955 68.2457 45.0705 71.3306C46.7432 72.4837 48.5368 73.4717 50.4285 74.2697C50.1977 74.1723 49.9676 74.0721 49.7396 73.9692C53.0339 73.7253 56.2376 72.834 59.2658 70.8076V70.8083ZM45.9701 64.5515C45.9701 64.5515 36.0314 57.3433 35.7032 42.1613C35.3758 26.9801 36.3589 26.7611 36.3589 26.7611C36.3589 26.7611 43.1305 29.0549 50.776 29.2732C58.4215 29.4916 53.2529 65.8884 45.9701 64.5508V64.5515Z" fill="#FFCA3A"/>
<path d="M37.3003 23.015C37.7182 23.149 38.1584 23.2803 38.6192 23.4074C38.9259 23.4924 39.2424 23.5753 39.5678 23.6568C40.0556 23.7791 40.5634 23.8973 41.0899 24.0113C41.4408 24.0873 41.8001 24.1619 42.1677 24.2344C43.2697 24.4521 44.4442 24.6517 45.6823 24.8334C46.0948 24.8942 46.5148 24.9523 46.9411 25.0082C47.1546 25.0366 47.3695 25.0642 47.5857 25.0911C48.6684 25.2266 49.7925 25.3475 50.9532 25.4539C51.1853 25.4753 51.4189 25.496 51.6538 25.516C55.1767 25.8173 59.0154 25.9831 63.0316 25.9831C67.7138 25.9831 72.1529 25.7579 76.1339 25.3551C79.1055 25.0545 81.8207 24.6545 84.1898 24.1757C84.1995 24.1736 84.2099 24.1715 84.2195 24.1695C84.7342 24.0651 85.2317 23.9574 85.7126 23.8454C85.7285 23.842 85.7444 23.8378 85.7602 23.8344C86.2356 23.7238 86.6937 23.6092 87.1345 23.4917C87.1517 23.4869 87.1683 23.4827 87.1856 23.4779C87.6222 23.3604 88.0416 23.2402 88.4423 23.1165C88.4603 23.111 88.4776 23.1055 88.4948 23.1C88.68 23.0426 88.8603 22.9846 89.0372 22.9258C89.0531 22.9203 89.069 22.9155 89.0842 22.9106C89.2721 22.8478 89.4559 22.7842 89.6341 22.72C89.6466 22.7151 89.659 22.711 89.6715 22.7061C89.8338 22.6474 89.992 22.588 90.1461 22.5279C90.1696 22.5189 90.1938 22.5092 90.2173 22.5002C90.3824 22.4353 90.5441 22.3697 90.6995 22.3033C90.703 22.302 90.7064 22.3006 90.7099 22.2992C90.857 22.2363 90.998 22.1735 91.1362 22.1092C91.1631 22.0968 91.1901 22.0843 91.217 22.0719C91.4968 21.9406 91.7573 21.8066 91.9984 21.6712C92.024 21.6567 92.0495 21.6421 92.0744 21.6276C92.185 21.5641 92.2927 21.4998 92.395 21.4349C92.4012 21.4307 92.4088 21.4266 92.415 21.4224C92.5228 21.354 92.6237 21.285 92.7218 21.2152C92.7432 21.2 92.7639 21.1841 92.7854 21.1689C92.8676 21.1088 92.9456 21.0487 93.0203 20.9879C93.0341 20.9768 93.0486 20.9658 93.0617 20.9547C93.1453 20.8849 93.2234 20.8151 93.2973 20.744C93.3132 20.7288 93.3284 20.7129 93.3436 20.6977C93.403 20.639 93.459 20.5795 93.5115 20.5201C93.5253 20.5042 93.5398 20.489 93.5529 20.4731C93.6131 20.402 93.6676 20.3308 93.7174 20.259C93.7271 20.2451 93.7347 20.2313 93.7443 20.2175C93.7844 20.1567 93.8203 20.0959 93.8528 20.0351C93.8625 20.0165 93.8728 19.9985 93.8818 19.9798C93.9177 19.9073 93.9495 19.8341 93.9751 19.7608C93.9785 19.7511 93.9806 19.7422 93.9834 19.7325C94.0048 19.6675 94.0207 19.6019 94.0331 19.5363C94.0366 19.5169 94.0407 19.4969 94.0435 19.4769C94.0545 19.4022 94.0628 19.3276 94.0628 19.2523C94.0628 15.5352 80.1701 12.5222 63.0323 12.5222C45.8944 12.5222 32.0017 15.5352 32.0017 19.2523C32.0017 20.1816 32.8702 21.0666 34.4399 21.8722C34.9304 22.1237 35.4901 22.3676 36.1126 22.6025C36.4864 22.7434 36.8829 22.8809 37.3009 23.0157L37.3003 23.015ZM63.0924 14.7041C77.7368 14.7041 89.6086 16.7402 89.6086 19.2523C89.6086 21.7644 77.7368 23.8005 63.0924 23.8005C48.448 23.8005 36.5762 21.7644 36.5762 19.2523C36.5762 16.7402 48.448 14.7041 63.0924 14.7041Z" fill="#FD6806"/>
<path d="M65.9858 95.783C66.8004 91.5381 66.8812 87.1958 66.6746 82.8804H56.8714C56.7028 82.8804 56.537 82.8707 56.3726 82.8535C56.6448 86.556 57.5872 98.9826 58.4549 105.546C62.4898 104.365 65.1146 100.326 65.9865 95.783H65.9858Z" fill="#FD6806"/>
<path d="M63.0919 23.8005C77.7364 23.8005 89.6081 21.7642 89.6081 19.2523C89.6081 16.7403 77.7364 14.704 63.0919 14.704C48.4474 14.704 36.5757 16.7403 36.5757 19.2523C36.5757 21.7642 48.4474 23.8005 63.0919 23.8005Z" fill="#AE4805"/>
<path d="M90.9885 59.7628C92.9535 55.7742 94.061 51.2978 94.061 46.5824V19.2516C94.061 19.327 94.0534 19.4016 94.0416 19.4762C94.0389 19.4962 94.0354 19.5156 94.0313 19.5356C94.0188 19.6012 94.0023 19.6669 93.9815 19.7318C93.9781 19.7415 93.9767 19.7505 93.9732 19.7602C93.9477 19.8334 93.9159 19.9066 93.88 19.9792C93.871 19.9978 93.8606 20.0158 93.8509 20.0344C93.8185 20.0952 93.7825 20.156 93.7425 20.2168C93.7335 20.2307 93.7252 20.2445 93.7155 20.2583C93.6658 20.3301 93.6105 20.4013 93.5511 20.4725C93.538 20.4884 93.5235 20.5036 93.5096 20.5195C93.4571 20.5789 93.4019 20.6383 93.3418 20.697C93.3266 20.7122 93.3113 20.7281 93.2955 20.7433C93.2222 20.8138 93.1435 20.8843 93.0599 20.954C93.0467 20.9651 93.0315 20.9761 93.0184 20.9872C92.9438 21.048 92.8657 21.1081 92.7835 21.1682C92.7621 21.1834 92.7414 21.1993 92.7199 21.2145C92.6225 21.2843 92.521 21.3534 92.4132 21.4218C92.407 21.4259 92.3994 21.4301 92.3931 21.4342C92.2909 21.4992 92.1838 21.5627 92.0726 21.627C92.0477 21.6415 92.0221 21.656 91.9966 21.6705C91.7554 21.8066 91.495 21.94 91.2151 22.0712C91.1882 22.0837 91.1613 22.0961 91.1343 22.1085C90.9961 22.1721 90.8552 22.2357 90.708 22.2985C90.7046 22.2999 90.7011 22.3013 90.6977 22.3027C90.5422 22.369 90.3805 22.4346 90.2154 22.4996C90.1919 22.5086 90.1677 22.5182 90.1442 22.5272C89.9895 22.5873 89.832 22.6467 89.6696 22.7055C89.6572 22.7103 89.6447 22.7145 89.6323 22.7193C89.454 22.7835 89.2703 22.8471 89.0823 22.91C89.0664 22.9155 89.0505 22.9203 89.0353 22.9252C88.8585 22.9839 88.6781 23.0419 88.493 23.0993C88.475 23.1048 88.4577 23.1103 88.4405 23.1159C88.0398 23.2395 87.6211 23.3598 87.1837 23.4772C87.1665 23.4821 87.1499 23.4862 87.1326 23.491C86.6925 23.6085 86.2337 23.7232 85.7584 23.8337C85.7425 23.8372 85.7266 23.8413 85.7107 23.8448C85.2298 23.9567 84.7324 24.0645 84.2177 24.1688C84.208 24.1709 84.1983 24.173 84.1887 24.1743C81.8195 24.6538 79.1043 25.0532 76.1327 25.3537C76.5583 36.0088 75.1392 47.0964 70.9703 56.8499C68.5272 62.5651 64.4309 67.3517 59.2657 70.8076C56.2375 72.834 53.0337 73.7253 49.7395 73.9692C49.9675 74.0721 50.1969 74.1723 50.4283 74.2697C50.4491 74.2787 50.4705 74.287 50.4912 74.296C50.7012 74.3837 50.912 74.4701 51.1241 74.553C51.1607 74.5675 51.1973 74.5806 51.2332 74.5951C51.4301 74.6718 51.6277 74.7464 51.8274 74.8183C51.8758 74.8362 51.9248 74.8528 51.9739 74.8701C52.1611 74.9371 52.3497 75.0027 52.539 75.0663C52.5971 75.0857 52.6558 75.105 52.7138 75.1237C52.8942 75.1831 53.0752 75.2404 53.2576 75.2964C53.3239 75.3164 53.3902 75.3365 53.4566 75.3565C53.6314 75.409 53.8069 75.4594 53.9837 75.5085C54.057 75.5292 54.1302 75.5486 54.2034 75.5686C54.3734 75.6149 54.544 75.6591 54.7154 75.7019C54.7948 75.722 54.875 75.742 54.9544 75.7614C55.121 75.8014 55.2875 75.8401 55.4553 75.8781C55.5396 75.8968 55.6246 75.9161 55.7089 75.9341C55.8727 75.9693 56.0364 76.0025 56.2015 76.035C56.2906 76.0522 56.3798 76.0702 56.4689 76.0868C56.6306 76.1172 56.7922 76.1455 56.9546 76.1724C57.0479 76.1883 57.1405 76.2042 57.2337 76.2194C57.3926 76.245 57.5522 76.2678 57.7112 76.2906C57.8086 76.3044 57.906 76.3189 58.0041 76.3321C58.1616 76.3528 58.3198 76.3714 58.4781 76.3901C58.5775 76.4018 58.677 76.4143 58.7772 76.4246C58.9354 76.4412 59.095 76.4557 59.2539 76.4702C59.3548 76.4792 59.455 76.4896 59.5559 76.4972C59.7182 76.5103 59.882 76.52 60.0457 76.5303C60.1431 76.5366 60.2399 76.5442 60.338 76.549C60.5162 76.5587 60.6952 76.5642 60.8734 76.5711C60.957 76.5739 61.0399 76.5787 61.1242 76.5808C61.3868 76.5877 61.65 76.5911 61.9139 76.5911H64.1476C67.8557 76.5911 71.4111 75.9002 74.6949 74.6456C77.2112 73.6838 79.5679 72.3897 81.7118 70.8173C85.6257 67.9465 88.8274 64.1507 90.9892 59.7621L90.9885 59.7628Z" fill="#FCA600"/>
<path d="M50.776 29.2738C43.1305 29.0555 36.3589 26.7617 36.3589 26.7617C36.3589 26.7617 35.3758 26.98 35.7033 42.162C36.0308 57.3432 45.9701 64.5521 45.9701 64.5521C53.2529 65.8897 58.4209 29.4929 50.776 29.2745V29.2738Z" fill="#FFE9AC"/>
<path d="M66.6742 82.8804C66.8815 87.1958 66.8 91.5381 65.9854 95.783C65.1142 100.326 62.4894 104.365 58.4539 105.545C58.4849 105.779 58.5153 106.005 58.5464 106.223C58.5464 106.227 58.5478 106.231 58.5478 106.235C58.5768 106.442 58.6059 106.639 58.6342 106.831C58.6363 106.845 58.6383 106.861 58.6404 106.875C58.666 107.045 58.6915 107.206 58.7171 107.364C58.7219 107.395 58.7275 107.43 58.7323 107.46C58.7627 107.644 58.7931 107.819 58.8228 107.984C59.8695 107.72 61.0185 107.559 62.191 107.497C62.2075 107.497 62.2241 107.495 62.2407 107.495C62.6248 107.475 63.0111 107.466 63.3973 107.469C63.4021 107.469 63.4069 107.469 63.4118 107.469C64.1745 107.474 64.9345 107.524 65.6724 107.613C65.7187 107.619 65.765 107.624 65.8106 107.631C66.1567 107.676 66.4981 107.729 66.8318 107.793C66.8704 107.801 66.9078 107.809 66.9464 107.816C67.2878 107.884 67.6221 107.96 67.9448 108.047C67.9448 108.047 67.9448 108.047 67.9455 108.047C68.7697 103.245 70.097 87.1619 70.4445 82.8541C70.2835 82.8707 70.1198 82.8797 69.954 82.8797H66.6715L66.6742 82.8804Z" fill="#FD6806"/>
<path d="M85.6861 103.953V115.172H41.3384V103.953C41.3384 99.3743 45.0492 95.6635 49.6258 95.6635H77.3973C81.976 95.6635 85.6868 99.3743 85.6868 103.953H85.6861Z" fill="#FFCA3A"/>
<path d="M85.686 103.953V115.172H79.8818C80.9768 98.8326 76.0493 95.6635 76.0493 95.6635H77.3973C81.9759 95.6635 85.6867 99.3743 85.6867 103.953H85.686Z" fill="#FCA600"/>
<path d="M85.4448 118.478H40.7032C39.6993 118.478 38.8848 117.566 38.8848 116.441V115.917C38.8848 114.793 39.6987 113.879 40.7032 113.879H85.4441C86.448 113.879 87.2626 114.793 87.2626 115.917V116.441C87.2626 117.566 86.4487 118.478 85.4441 118.478H85.4448Z" fill="#FD6806"/>
<path d="M71.7143 95.6635H54.8756C53.7508 95.6635 52.8381 94.7508 52.8381 93.626V93.1016C52.8381 91.9768 53.7501 91.0641 54.8756 91.0641H71.7143C72.8391 91.0641 73.7511 91.9768 73.7511 93.1016V93.626C73.7511 94.7508 72.8391 95.6635 71.7143 95.6635Z" fill="#FCA600"/>
</svg>
