<svg width="128" height="116" viewBox="0 0 128 116" fill="none" xmlns="http://www.w3.org/2000/svg">
    <path d="M120.523 45.227C118.83 33.6044 110.066 24.2705 98.5718 21.8506C94.5894 21.0042 91.0004 18.8466 88.3653 15.7353C76.0364 1.18015 54.2402 -0.631795 39.6696 11.7061C34.0417 16.4744 30.0831 22.9115 28.378 30.0878C27.0068 35.6189 23.2986 40.268 18.2192 42.8548C4.99598 49.7211 -1.62158 67.5544 10.4212 84.2791C11.9951 86.2699 14.034 87.8434 16.3472 88.8567C20.6158 90.9666 23.9544 94.5786 25.6952 99.0131C31.2397 112.615 46.7641 119.135 60.3689 113.58C62.1693 112.841 63.8863 111.911 65.4841 110.803C70.0031 107.644 75.6787 106.642 81.0085 108.061C95.436 111.995 110.317 103.483 114.251 89.0593C115.372 84.9705 115.503 80.6671 114.657 76.5188C113.786 71.9889 114.621 67.2922 116.994 63.3345C120.189 57.8748 121.429 51.4973 120.511 45.2389L120.523 45.227Z" fill="#D0D9FA"/>
    <path d="M10.6358 8.71399C10.9935 9.90606 11.9235 10.824 13.1159 11.1935C14.3559 11.6107 14.3559 12.016 13.1159 12.4332C11.9235 12.7909 11.0054 13.7207 10.6358 14.9127C10.2184 16.1525 9.81305 16.1525 9.39573 14.9127C9.03802 13.7207 8.10798 12.8028 6.91563 12.4332C5.67558 12.016 5.67558 11.6107 6.91563 11.1935C8.10798 10.8359 9.0261 9.90606 9.39573 8.71399C9.81305 7.47424 10.2184 7.47424 10.6358 8.71399Z" fill="#EB5B19"/>
    <path d="M3.38628 83.9215C3.6486 84.7917 4.32824 85.4593 5.18674 85.7215C6.09292 86.0195 6.09292 86.3175 5.18674 86.6275C4.31632 86.8897 3.6486 87.5692 3.38628 88.4275C3.08819 89.3335 2.79011 89.3335 2.48009 88.4275C2.21778 87.5573 1.53814 86.8897 0.679641 86.6275C-0.226547 86.3295 -0.226547 86.0314 0.679641 85.7215C1.55006 85.4593 2.21778 84.7798 2.48009 83.9215C2.77818 83.0155 3.07627 83.0155 3.38628 83.9215Z" fill="#EB5B19"/>
    <path d="M85.9567 0.548361C86.1714 1.23976 86.7079 1.78811 87.4114 2.00268C88.1388 2.2411 88.1388 2.49143 87.4114 2.72984C86.7199 2.94441 86.1714 3.48084 85.9567 4.18416C85.7183 4.91132 85.4679 4.91132 85.2294 4.18416C85.0148 3.49277 84.4782 2.94441 83.7747 2.72984C83.0474 2.49143 83.0474 2.2411 83.7747 2.00268C84.4663 1.78811 85.0148 1.25168 85.2294 0.548361C85.4679 -0.178799 85.7183 -0.178799 85.9567 0.548361Z" fill="#EB5B19"/>
    <path d="M118.007 22.5301C118.258 23.3526 118.901 24.0082 119.736 24.2586C120.595 24.5447 120.595 24.8308 119.736 25.1169C118.913 25.3672 118.258 26.0109 118.007 26.8454C117.721 27.7036 117.435 27.7036 117.149 26.8454C116.898 26.0228 116.254 25.3672 115.42 25.1169C114.561 24.8308 114.561 24.5447 115.42 24.2586C116.242 24.0082 116.898 23.3645 117.149 22.5301C117.435 21.6718 117.721 21.6718 118.007 22.5301Z" fill="#EB5B19"/>
    <path d="M121.15 59.6272C121.782 61.7133 123.415 63.3464 125.502 63.9782C127.672 64.7054 127.672 65.4325 125.502 66.1478C123.415 66.7796 121.782 68.4127 121.15 70.4988C120.422 72.6684 119.695 72.6684 118.98 70.4988C118.348 68.4127 116.714 66.7796 114.628 66.1478C112.457 65.4206 112.457 64.6935 114.628 63.9782C116.714 63.3464 118.348 61.7133 118.98 59.6272C119.707 57.4576 120.434 57.4576 121.15 59.6272Z" fill="#EB5B19"/>
    <path d="M113.5 101.425L89.2466 77.202C88.834 76.7902 88.1657 76.7906 87.7539 77.2032L87.2793 77.6787L84.9212 75.3237C85.6154 74.4496 85.5594 73.1743 84.7504 72.3667L83.5446 71.1626C92.6298 57.6226 91.1852 39.1183 79.2136 27.1611C65.6097 13.5734 43.5671 13.5871 29.98 27.1911C16.3928 40.795 16.406 62.8376 30.0105 76.4248C41.9826 88.3819 60.4888 89.8033 74.0173 80.7016L75.2231 81.9056C76.032 82.7139 77.3069 82.7682 78.1804 82.0727L80.5386 84.4277L80.064 84.9032C79.6521 85.3158 79.6525 85.9835 80.0651 86.3959L104.318 110.619C105.363 111.662 107.055 111.661 108.098 110.617L113.503 105.206C114.546 104.161 114.545 102.469 113.501 101.426L113.5 101.425Z" fill="#2190DF"/>
    <path d="M84.9218 75.3232C84.8692 75.3889 84.8137 75.4534 84.7529 75.5145L78.3714 81.9038C78.3106 81.9649 78.2463 82.0204 78.1804 82.0728L80.5385 84.4277L87.2799 77.6781L84.9218 75.3232Z" fill="#C8CAFF"/>
    <path d="M53.1429 82.5005C70.1024 83.3119 84.5086 70.2213 85.32 53.2618C86.1314 36.3023 73.0408 21.8962 56.0813 21.0848C39.1218 20.2734 24.7156 33.364 23.9042 50.3235C23.0929 67.2829 36.1835 81.6891 53.1429 82.5005Z" fill="#1B1C37"/>
    <path d="M73.6002 72.689C85.1409 62.2021 85.9953 44.3453 75.5084 32.8045C65.0216 21.2638 47.1647 20.4095 35.624 30.8963C24.0833 41.3832 23.2289 59.2401 33.7158 70.7808C44.2026 82.3215 62.0595 83.1758 73.6002 72.689Z" fill="#E3E4FF"/>
    <path d="M74.2348 63.2555C63.2153 74.2889 45.3381 74.2994 34.3047 63.2799C30.1733 59.1541 27.588 54.0662 26.5479 48.7365C25.6586 56.9496 28.3586 65.4771 34.6589 71.7696C45.6923 82.7891 63.5695 82.778 74.5891 71.7445C81.4822 64.8425 84.0589 55.2625 82.3209 46.3584C81.6531 52.529 78.962 58.5217 74.2349 63.2548L74.2348 63.2555Z" fill="#C8CAFF"/>
    <path d="M54.9298 49.1671C64.7352 49.4751 72.8505 44.4254 73.0559 37.8884C73.2612 31.3513 65.4788 25.8023 55.6734 25.4943C45.868 25.1863 37.7527 30.236 37.5473 36.773C37.342 43.3101 45.1244 48.8591 54.9298 49.1671Z" fill="white"/>
    <path d="M113.5 101.425L89.2466 77.202C88.834 76.7902 88.1657 76.7906 87.7539 77.2032L87.2793 77.6787L80.5379 84.4282L80.0633 84.9037C79.6515 85.3163 79.6519 85.9841 80.0645 86.3965L104.318 110.62C105.362 111.663 107.055 111.662 108.098 110.617L113.503 105.206C114.546 104.162 114.544 102.47 113.5 101.426L113.5 101.425Z" fill="#0066AF"/>
</svg>
