<svg width="128" height="116" viewBox="0 0 128 116" fill="none" xmlns="http://www.w3.org/2000/svg">
    <path d="M120.523 45.227C118.83 33.6044 110.066 24.2705 98.5718 21.8506C94.5894 21.0042 91.0004 18.8466 88.3653 15.7353C76.0364 1.18015 54.2402 -0.631795 39.6696 11.7061C34.0417 16.4744 30.0831 22.9115 28.378 30.0878C27.0068 35.6189 23.2986 40.268 18.2192 42.8548C4.99598 49.7211 -1.62158 67.5544 10.4212 84.2791C11.9951 86.2699 14.034 87.8434 16.3472 88.8567C20.6158 90.9666 23.9544 94.5786 25.6952 99.0131C31.2397 112.615 46.7641 119.135 60.3689 113.58C62.1693 112.841 63.8863 111.911 65.4841 110.803C70.0031 107.644 75.6787 106.642 81.0085 108.061C95.436 111.995 110.317 103.483 114.251 89.0593C115.372 84.9705 115.503 80.6671 114.657 76.5188C113.786 71.9889 114.621 67.2922 116.994 63.3345C120.189 57.8748 121.429 51.4973 120.511 45.2389L120.523 45.227Z" fill="#D0D9FA"/>
    <path d="M10.6358 8.71399C10.9935 9.90606 11.9235 10.824 13.1159 11.1935C14.3559 11.6107 14.3559 12.016 13.1159 12.4332C11.9235 12.7909 11.0054 13.7207 10.6358 14.9127C10.2184 16.1525 9.81305 16.1525 9.39573 14.9127C9.03802 13.7207 8.10798 12.8028 6.91563 12.4332C5.67558 12.016 5.67558 11.6107 6.91563 11.1935C8.10798 10.8359 9.0261 9.90606 9.39573 8.71399C9.81305 7.47424 10.2184 7.47424 10.6358 8.71399Z" fill="#EB5B19"/>
    <path d="M3.38628 83.9215C3.6486 84.7917 4.32824 85.4593 5.18674 85.7215C6.09292 86.0195 6.09292 86.3175 5.18674 86.6275C4.31632 86.8897 3.6486 87.5692 3.38628 88.4275C3.08819 89.3335 2.79011 89.3335 2.48009 88.4275C2.21778 87.5573 1.53814 86.8897 0.679641 86.6275C-0.226547 86.3295 -0.226547 86.0314 0.679641 85.7215C1.55006 85.4593 2.21778 84.7798 2.48009 83.9215C2.77818 83.0155 3.07627 83.0155 3.38628 83.9215Z" fill="#EB5B19"/>
    <path d="M85.9567 0.548361C86.1714 1.23976 86.7079 1.78811 87.4114 2.00268C88.1388 2.2411 88.1388 2.49143 87.4114 2.72984C86.7199 2.94441 86.1714 3.48084 85.9567 4.18416C85.7183 4.91132 85.4679 4.91132 85.2294 4.18416C85.0148 3.49277 84.4782 2.94441 83.7747 2.72984C83.0474 2.49143 83.0474 2.2411 83.7747 2.00268C84.4663 1.78811 85.0148 1.25168 85.2294 0.548361C85.4679 -0.178799 85.7183 -0.178799 85.9567 0.548361Z" fill="#EB5B19"/>
    <path d="M118.007 22.5301C118.258 23.3526 118.901 24.0082 119.736 24.2586C120.595 24.5447 120.595 24.8308 119.736 25.1169C118.913 25.3672 118.258 26.0109 118.007 26.8454C117.721 27.7036 117.435 27.7036 117.149 26.8454C116.898 26.0228 116.254 25.3672 115.42 25.1169C114.561 24.8308 114.561 24.5447 115.42 24.2586C116.242 24.0082 116.898 23.3645 117.149 22.5301C117.435 21.6718 117.721 21.6718 118.007 22.5301Z" fill="#EB5B19"/>
    <path d="M121.15 59.6272C121.782 61.7133 123.415 63.3464 125.502 63.9782C127.672 64.7054 127.672 65.4325 125.502 66.1478C123.415 66.7796 121.782 68.4127 121.15 70.4988C120.422 72.6684 119.695 72.6684 118.98 70.4988C118.348 68.4127 116.714 66.7796 114.628 66.1478C112.457 65.4206 112.457 64.6935 114.628 63.9782C116.714 63.3464 118.348 61.7133 118.98 59.6272C119.707 57.4576 120.434 57.4576 121.15 59.6272Z" fill="#EB5B19"/>
    <path d="M29.0183 37.92C29.0183 37.92 29.4268 42.4797 33.478 47.2729C38.763 53.5248 57.2021 58.4347 57.2021 58.4347L36.2872 30.601L29.0183 37.92Z" fill="#AE4805"/>
    <path d="M65.1296 52.1577C65.1296 52.1577 65.7548 30.476 50.2083 21.8899C49.1746 21.3148 47.9242 21.2481 46.8072 21.6315C42.7476 23.032 31.8192 27.3583 29.0183 37.9199C29.0183 37.9199 35.0452 30.1675 57.1938 58.4347L65.1296 52.1494V52.1577Z" fill="#FD6806"/>
    <path d="M98.9819 37.92C98.9819 37.92 98.5734 42.4797 94.5305 47.2729C89.2455 53.5248 70.8064 58.4347 70.8064 58.4347L91.7213 30.601L98.9902 37.92H98.9819Z" fill="#AE4805"/>
    <path d="M62.8704 52.1577C62.8704 52.1577 62.2535 30.4843 77.7917 21.8899C78.8254 21.3148 80.0758 21.2481 81.1928 21.6315C85.2524 23.032 96.1725 27.3583 98.9734 37.9199C98.9734 37.9199 92.9465 30.1675 70.7979 58.4347L62.8621 52.1494L62.8704 52.1577Z" fill="#FD6806"/>
    <path d="M101.691 49.8736H26.3091C25.0338 49.8736 24 50.9074 24 52.1827V66.4871C24 67.7624 25.0338 68.7962 26.3091 68.7962H101.691C102.966 68.7962 104 67.7624 104 66.4871V52.1827C104 50.9074 102.966 49.8736 101.691 49.8736Z" fill="#FFCA3A"/>
    <path d="M72.7986 49.8736H56.0601V68.7962H72.7986V49.8736Z" fill="#FCA600"/>
    <path d="M101.8 68.8045V71.8971H72.8071V109.2H97.9317C100.074 109.2 101.808 107.467 101.808 105.324V68.8045H101.8Z" fill="#FCA600"/>
    <path d="M26.209 71.8972V105.333C26.209 107.475 27.9429 109.209 30.0852 109.209H56.0683V71.9055H26.209V71.8972Z" fill="#FCA600"/>
    <path d="M72.7986 71.8972H56.0601V109.2H72.7986V71.8972Z" fill="#FD6806"/>
    <path d="M56.0683 68.8045H26.209V71.8971H56.0683V68.8045Z" fill="#F18729"/>
    <path d="M101.791 68.8045H72.7986V71.8971H101.791V68.8045Z" fill="#F18729"/>
    <path d="M72.7986 68.8045H56.0601V71.8971H72.7986V68.8045Z" fill="#DF5901"/>
</svg>
