<svg width="128" height="116" viewBox="0 0 128 116" fill="none" xmlns="http://www.w3.org/2000/svg">
    <path d="M120.523 45.227C118.83 33.6044 110.066 24.2705 98.5718 21.8506C94.5894 21.0042 91.0004 18.8466 88.3653 15.7353C76.0364 1.18015 54.2402 -0.631794 39.6696 11.7061C34.0417 16.4744 30.0831 22.9115 28.378 30.0878C27.0068 35.6189 23.2986 40.268 18.2192 42.8548C4.99598 49.7211 -1.62158 67.5544 10.4212 84.2791C11.9951 86.2699 14.034 87.8434 16.3472 88.8567C20.6158 90.9666 23.9544 94.5786 25.6952 99.0131C31.2397 112.615 46.7641 119.135 60.3689 113.58C62.1693 112.841 63.8863 111.911 65.4841 110.803C70.0031 107.644 75.6787 106.642 81.0085 108.061C95.436 111.995 110.317 103.483 114.251 89.0593C115.372 84.9705 115.503 80.6671 114.657 76.5188C113.786 71.9889 114.621 67.2922 116.994 63.3345C120.189 57.8748 121.429 51.4973 120.511 45.2389L120.523 45.227Z" fill="#D0D9FA"/>
    <path d="M10.6358 8.71399C10.9935 9.90606 11.9235 10.824 13.1159 11.1935C14.3559 11.6107 14.3559 12.016 13.1159 12.4332C11.9235 12.7909 11.0054 13.7207 10.6358 14.9127C10.2184 16.1525 9.81305 16.1525 9.39573 14.9127C9.03802 13.7207 8.10798 12.8028 6.91563 12.4332C5.67558 12.016 5.67558 11.6107 6.91563 11.1935C8.10798 10.8359 9.0261 9.90606 9.39573 8.71399C9.81305 7.47424 10.2184 7.47424 10.6358 8.71399Z" fill="#EB5B19"/>
    <path d="M3.38628 83.9215C3.6486 84.7917 4.32824 85.4593 5.18674 85.7215C6.09292 86.0195 6.09292 86.3175 5.18674 86.6275C4.31632 86.8897 3.6486 87.5692 3.38628 88.4275C3.08819 89.3335 2.79011 89.3335 2.48009 88.4275C2.21778 87.5573 1.53814 86.8897 0.679641 86.6275C-0.226547 86.3295 -0.226547 86.0314 0.679641 85.7215C1.55006 85.4593 2.21778 84.7798 2.48009 83.9215C2.77818 83.0155 3.07627 83.0155 3.38628 83.9215Z" fill="#EB5B19"/>
    <path d="M85.9567 0.548361C86.1714 1.23976 86.7079 1.78811 87.4114 2.00268C88.1388 2.2411 88.1388 2.49143 87.4114 2.72984C86.7199 2.94441 86.1714 3.48084 85.9567 4.18416C85.7183 4.91132 85.4679 4.91132 85.2294 4.18416C85.0148 3.49277 84.4782 2.94441 83.7747 2.72984C83.0474 2.49143 83.0474 2.2411 83.7747 2.00268C84.4663 1.78811 85.0148 1.25168 85.2294 0.548361C85.4679 -0.178799 85.7183 -0.178799 85.9567 0.548361Z" fill="#EB5B19"/>
    <path d="M118.007 22.5301C118.258 23.3526 118.901 24.0082 119.736 24.2586C120.595 24.5447 120.595 24.8308 119.736 25.1169C118.913 25.3672 118.258 26.0109 118.007 26.8454C117.721 27.7036 117.435 27.7036 117.149 26.8454C116.898 26.0228 116.254 25.3672 115.42 25.1169C114.561 24.8308 114.561 24.5447 115.42 24.2586C116.242 24.0082 116.898 23.3645 117.149 22.5301C117.435 21.6718 117.721 21.6718 118.007 22.5301Z" fill="#EB5B19"/>
    <path d="M121.15 59.6272C121.782 61.7133 123.415 63.3464 125.502 63.9782C127.672 64.7054 127.672 65.4325 125.502 66.1478C123.415 66.7796 121.782 68.4127 121.15 70.4988C120.422 72.6684 119.695 72.6684 118.98 70.4988C118.348 68.4127 116.714 66.7796 114.628 66.1478C112.457 65.4206 112.457 64.6935 114.628 63.9782C116.714 63.3464 118.348 61.7133 118.98 59.6272C119.707 57.4576 120.434 57.4576 121.15 59.6272Z" fill="#EB5B19"/>
    <g clip-path="url(#clip0_7401_22859)">
        <path d="M52.9724 32.8303L18.0196 36.7164C17.2141 36.8082 16.7961 37.5834 17.0918 38.4707L41.5526 110.572C41.8483 111.449 42.7455 112.082 43.5612 111.99L92.3605 106.553C93.166 106.462 93.5738 105.686 93.2782 104.809L73.5994 46.8038L52.9622 32.8303H52.9724Z" fill="#F45A0E"/>
        <path d="M60.2933 25.5784L25.3507 29.4644C24.5452 29.5562 24.1272 30.3314 24.4229 31.2188L48.8837 103.32C49.1794 104.197 50.0766 104.83 50.8923 104.738L99.6916 99.3117C100.497 99.2199 100.905 98.4447 100.609 97.5675L80.9203 39.5621L60.2831 25.5886L60.2933 25.5784Z" fill="white"/>
        <path d="M69.5821 18L34.6293 21.8861C33.8238 21.9779 33.4058 22.753 33.7117 23.6302L58.1827 95.7316C58.4784 96.6087 59.3756 97.2411 60.1811 97.1595L108.98 91.7333C109.786 91.6415 110.194 90.8663 109.898 89.9892L90.2091 31.9837L69.5821 18Z" fill="#F45A0E"/>
        <path d="M69.5311 18L74.3131 32.0857C74.6088 32.9629 75.5061 33.5953 76.3116 33.5137L90.1683 31.9735L69.5311 18Z" fill="#FD945F"/>
        <path d="M65.7483 41.6428C56.694 42.6526 52.0445 51.4855 55.3889 61.3179C58.7333 71.1606 68.8173 78.3514 77.8716 77.3416C86.9259 76.3318 91.5754 67.5091 88.231 57.6563C87.9353 56.7791 87.038 56.1365 86.2325 56.2283C85.427 56.3201 85.0192 57.1055 85.3149 57.9724C88.0577 66.071 84.2341 73.3229 76.7908 74.1491C69.3476 74.9753 61.058 69.0697 58.305 60.9813C55.5622 52.893 59.3858 45.6309 66.8291 44.8047C67.6346 44.7129 68.0526 43.9377 67.7467 43.0504C67.451 42.1834 66.5538 41.5408 65.7483 41.6224V41.6428Z" fill="white"/>
        <path d="M84.6929 43.4379C84.3156 43.4787 83.9996 43.6725 83.816 44.0091L74.3335 62.0319L67.7162 57.3197C67.3287 57.0443 66.9005 56.9321 66.5232 56.9729C66.1459 57.0137 65.8298 57.2075 65.6463 57.5543C65.2894 58.2376 65.6259 59.2372 66.411 59.7982L74.4355 65.5202C74.8025 65.7956 75.241 65.9078 75.6284 65.867C76.0159 65.8262 76.332 65.6222 76.5053 65.2856L86.6506 46.0389C87.0075 45.3555 86.671 44.3457 85.8859 43.7847C85.4984 43.5093 85.0702 43.3971 84.6929 43.4379Z" fill="white"/>
    </g>
    <defs>
        <clipPath id="clip0_7401_22859">
            <rect width="93" height="94" fill="white" transform="translate(17 18)"/>
        </clipPath>
    </defs>
</svg>
