<svg width="345" height="60" viewBox="0 0 345 60" fill="none" xmlns="http://www.w3.org/2000/svg">
    <path d="M339 0H280.11C280.11 4.9 276.14 8.86 271.25 8.86C266.36 8.86 262.39 4.89 262.39 0H6C2.69 0 0 2.69 0 6V54C0 57.31 2.69 60 6 60H262.39C262.39 55.1 266.36 51.14 271.25 51.14C276.14 51.14 280.11 55.11 280.11 60H339C342.31 60 345 57.31 345 54V6C345 2.69 342.31 0 339 0Z" fill="#32324A"/>
    <path d="M271.5 45.5H271V42.5H271.5V45.5ZM271.5 40.5H271V37.5H271.5V40.5ZM271.5 35.5H271V32.5H271.5V35.5ZM271.5 30.5H271V27.5H271.5V30.5ZM271.5 25.5H271V22.5H271.5V25.5ZM271.5 20.5H271V17.5H271.5V20.5ZM271.5 15.5H271V12.5H271.5V15.5Z" fill="#EAEBEB"/>
</svg>
