<svg width="40" height="40" viewBox="0 0 40 40" fill="none" xmlns="http://www.w3.org/2000/svg">
    <circle cx="20" cy="20" r="20" fill="#737E87"/>
    <path d="M30.4914 24.7638C29.4214 23.5938 28.5614 22.7238 27.6814 21.9338C27.0714 21.3838 26.4014 21.1238 25.7314 21.1438C25.0914 21.1738 24.4814 21.4938 23.9814 22.0538C23.6914 22.3438 23.3814 22.6538 23.1314 23.0038C23.1114 23.0238 23.0414 23.0338 23.0314 23.0338C21.1414 21.7438 19.5514 20.2338 17.9914 18.2638C17.5814 17.7838 17.3814 17.4738 17.3114 17.3238C17.3714 17.2438 17.4814 17.1238 17.5714 17.0238C17.7014 16.8838 17.8414 16.7338 17.9614 16.5838C19.4214 15.1238 19.4514 13.8038 18.0814 12.3138C17.3014 11.4338 16.5214 10.6538 15.5514 9.77376C14.4414 8.78376 13.1514 8.74376 12.0114 9.65376C10.4714 10.8738 9.50142 12.2438 9.21142 13.6238C8.77142 15.2738 9.02142 16.9538 9.93142 18.4638C12.8414 23.9138 17.3014 28.0738 22.8214 30.4938C23.9314 31.0038 24.7814 31.2138 25.6514 31.2138C27.8014 31.2138 29.2614 29.6638 30.6714 28.1538L30.7314 28.0738C31.4414 27.0138 31.3514 25.7438 30.4914 24.7638ZM29.2014 26.8738C28.1814 28.0838 27.3914 28.7738 26.6714 29.0938C25.8514 29.4238 24.8414 29.3038 23.5114 28.7238C18.3114 26.3938 14.2614 22.6238 11.4814 17.5138C10.2814 15.2038 10.8714 12.9138 13.1914 11.0338C13.3814 10.8438 13.6514 10.8238 13.7214 10.8238C13.8614 10.8238 14.0014 10.8738 14.2514 11.1238C14.5514 11.4238 14.8414 11.7038 15.1314 11.9838C15.6714 12.5038 16.1814 13.0038 16.6314 13.5138C16.9914 13.8738 17.1614 14.1338 17.1614 14.3138C17.1614 14.4938 16.9514 14.7738 16.5614 15.1338L16.4714 15.2438C16.3114 15.4738 16.1714 15.6638 16.0514 15.8338C15.6914 16.3138 15.4114 16.6938 15.4114 17.3038C15.4114 18.0038 15.7914 18.4938 16.4814 19.3838C17.9814 21.3938 19.7814 23.0638 21.9714 24.4938C22.7614 25.0238 23.7614 24.9138 24.4514 24.2238C24.6014 24.0738 24.7614 23.8938 24.9114 23.7138C25.0414 23.5538 25.1814 23.4038 25.3114 23.2738C25.7414 22.8438 26.0514 22.8238 26.4914 23.2038C27.3214 23.9438 28.1514 24.7738 29.1614 25.8738C29.3914 26.3338 29.4514 26.5738 29.2014 26.8638V26.8738Z" fill="white"/>
</svg>
