<svg width="40" height="40" viewBox="0 0 40 40" fill="none" xmlns="http://www.w3.org/2000/svg">
    <circle cx="20" cy="20" r="20" fill="#737E87"/>
    <path fill-rule="evenodd" clip-rule="evenodd" d="M27.87 19.06C29.38 21.06 30.17 23.07 30.28 25.19H30.3C30.37 26.49 30.17 27.52 29.69 28.43C29.09 29.55 28.16 30.4 26.82 31.04C25.65 31.6 24.34 31.95 22.72 32.13C21.82 32.23 20.94 32.28 20.09 32.28C18.7 32.28 17.37 32.15 16.07 31.88C14.68 31.59 13.55 31.15 12.6 30.53C11.29 29.68 10.47 28.53 10.15 27.12C10.1152 26.972 10.088 26.8165 10.0617 26.6666C10.0578 26.6443 10.0539 26.622 10.05 26.6C10.04 26.555 10.0325 26.51 10.025 26.465C10.0175 26.42 10.01 26.375 10 26.33V25.17L10.02 25.07L10.02 25.07C10.03 25.03 10.04 24.99 10.04 24.95C10.1 24.21 10.24 23.47 10.47 22.74C10.94 21.26 11.74 19.85 12.86 18.54C13.55 17.74 14.28 16.95 14.99 16.19C15.31 15.86 15.62 15.52 15.93 15.18L15.93 15.18L15.98 15.12C15.78 14.9 15.69 14.6 15.75 14.32C15.81 14.03 16.02 13.8 16.33 13.67C16.32 13.66 16.31 13.65 16.31 13.64C15.955 12.99 15.6025 12.3375 15.25 11.685C14.8975 11.0325 14.545 10.38 14.19 9.73C14.02 9.43 13.99 9.14 14.09 8.89C14.19 8.64 14.41 8.46 14.74 8.36C15.02 8.28 15.3 8.21 15.59 8.15C15.81 8.11 16.04 8.07 16.26 8.04L16.53 8L16.55 8.14V8H17.64C17.6794 8.00394 17.7158 8.00944 17.7502 8.01466C17.8031 8.02267 17.8516 8.03 17.9 8.03C18.08 8.05 18.26 8.07 18.44 8.11C18.9331 8.20723 19.431 8.31411 19.9271 8.42058C20.1453 8.46742 20.3631 8.51417 20.58 8.56L21.39 8.73C22.13 8.89 22.93 9.01 23.71 8.85C24.106 8.76712 24.4935 8.62488 24.8725 8.48575C24.9051 8.4738 24.9376 8.46187 24.97 8.45C25.3 8.32 25.61 8.35 25.86 8.5C26.08 8.64 26.22 8.86 26.24 9.13C26.27 9.38 26.15 9.63 26.1 9.73C25.9732 9.96557 25.8463 10.2018 25.7193 10.4384C25.3556 11.1157 24.9906 11.7956 24.62 12.47L23.98 13.64C24.42 13.74 24.59 14.03 24.65 14.27C24.74 14.61 24.64 14.91 24.37 15.15L24.77 15.57L24.7873 15.5879C25.8419 16.6824 26.9351 17.8168 27.87 19.06ZM19.97 10.18C19.19 9.99 18.38 9.8 17.57 9.74L17.56 9.75C17.1 9.72 16.66 9.73 16.2 9.8L16.72 10.76C17.23 11.69 17.74 12.63 18.24 13.57C18.2423 13.573 18.2444 13.5759 18.2463 13.5786C18.2705 13.6115 18.2768 13.62 18.36 13.62H20.14H21.92C21.99 13.62 22.01 13.61 22.05 13.53L22.0501 13.5297C22.4301 12.8198 22.81 12.1099 23.19 11.41L23.62 10.62C22.6 10.73 21.62 10.55 20.78 10.37C20.645 10.34 20.51 10.3075 20.375 10.275C20.24 10.2425 20.105 10.21 19.97 10.18ZM18.25 15.37C18.19 15.37 18.07 15.44 18.07 15.44L18.06 15.45C17.35 16.18 16.64 16.92 15.94 17.66C15.01 18.63 13.96 19.79 13.13 21.11C12.15 22.68 11.69 24.27 11.74 25.96C11.77 27.01 12.16 27.88 12.89 28.56C13.58 29.19 14.44 29.63 15.67 29.98C16.94 30.33 18.3 30.5 20.09 30.52H20.13C21.58 30.51 22.76 30.39 23.82 30.17C25.18 29.88 26.15 29.5 26.96 28.91C27.88 28.26 28.39 27.39 28.5 26.34C28.62 25.17 28.45 24 27.98 22.77C27.51 21.52 26.75 20.34 25.68 19.14C24.8437 18.2172 23.9704 17.2943 23.1223 16.3981L23.02 16.29L22.18 15.41C22.16 15.4 22.09 15.37 22.03 15.37H20.14H18.25ZM21.17 22.71C21.73 23 22.11 23.52 22.24 24.19V24.16C22.38 24.9 22.19 25.7 21.73 26.25C21.4 26.64 21.01 26.91 20.58 27.05C20.49 27.07 20.49 27.08 20.49 27.19C20.49 27.35 20.48 27.49 20.44 27.62C20.34 27.97 20 28.22 19.64 28.22H19.57C19.18 28.19 18.87 27.9 18.8 27.5V27.41C18.85 27.14 18.74 27.07 18.43 26.92C17.96 26.69 17.59 26.37 17.35 25.96C17.06 25.47 17.41 24.84 17.97 24.74C18.29 24.69 18.66 24.79 18.83 25.07C18.94 25.25 19.11 25.37 19.35 25.43C19.78 25.54 20.25 25.39 20.46 25.07C20.58 24.89 20.62 24.68 20.55 24.49C20.49 24.32 20.35 24.2 20.17 24.14C19.95 24.07 19.72 24.01 19.49 23.96C19.29 23.92 19.09 23.87 18.89 23.81C18.61 23.73 18.39 23.64 18.18 23.54C18.15 23.52 18.12 23.51 18.09 23.5C18.08 23.49 18.07 23.49 18.07 23.49H18.06C17.52 23.2 17.15 22.69 17.02 22.04C16.88 21.3 17.07 20.5 17.53 19.95C17.86 19.56 18.25 19.29 18.68 19.15C18.77 19.13 18.77 19.12 18.77 19.01C18.77 18.85 18.78 18.71 18.82 18.58C18.92 18.23 19.26 17.98 19.62 17.98H19.69C20.08 18.01 20.39 18.3 20.46 18.7V18.79C20.41 19.06 20.52 19.13 20.83 19.28C21.3 19.51 21.67 19.83 21.91 20.24C22.2 20.73 21.85 21.36 21.29 21.46C20.97 21.51 20.6 21.41 20.43 21.13C20.32 20.95 20.15 20.83 19.91 20.77C19.48 20.66 19.01 20.81 18.8 21.13C18.68 21.31 18.64 21.52 18.71 21.71C18.77 21.88 18.91 22 19.09 22.06C19.31 22.13 19.54 22.19 19.77 22.24C19.82 22.255 19.87 22.2675 19.92 22.28C19.97 22.2925 20.02 22.305 20.07 22.32V22.33H20.11C20.1526 22.3442 20.1951 22.3539 20.2367 22.3634C20.2829 22.3739 20.3278 22.3842 20.37 22.4C20.39 22.4 20.41 22.42 20.41 22.42H20.4C20.66 22.5 20.92 22.58 21.17 22.71Z" fill="white"/>
</svg>
